<svg xmlns="http://www.w3.org/2000/svg" viewBox="0 0 64 64" width="64" height="64">
  <defs>
    <linearGradient id="bgGradient" x1="0%" y1="0%" x2="100%" y2="100%">
      <stop offset="0%" style="stop-color:#3b82f6;stop-opacity:1" />
      <stop offset="100%" style="stop-color:#1e40af;stop-opacity:1" />
    </linearGradient>
    <linearGradient id="paperGradient" x1="0%" y1="0%" x2="100%" y2="100%">
      <stop offset="0%" style="stop-color:#ffffff;stop-opacity:1" />
      <stop offset="100%" style="stop-color:#f1f5f9;stop-opacity:1" />
    </linearGradient>
  </defs>
  
  <!-- Background circle -->
  <circle cx="32" cy="32" r="30" fill="url(#bgGradient)" stroke="#1e40af" stroke-width="2"/>
  
  <!-- Clipboard/Paper background -->
  <rect x="18" y="12" width="28" height="36" rx="2" fill="url(#paperGradient)" stroke="#cbd5e1" stroke-width="1"/>
  
  <!-- Clipboard clip -->
  <rect x="28" y="8" width="8" height="8" rx="1" fill="#64748b" stroke="#475569" stroke-width="0.5"/>
  
  <!-- Task lines/checkboxes -->
  <!-- Task 1 - Completed -->
  <rect x="22" y="20" width="4" height="4" rx="0.5" fill="#10b981" stroke="#059669" stroke-width="0.5"/>
  <path d="M23 22 L24 23 L26 21" stroke="white" stroke-width="1" fill="none" stroke-linecap="round" stroke-linejoin="round"/>
  <line x1="28" y1="22" x2="40" y2="22" stroke="#64748b" stroke-width="1" stroke-linecap="round"/>
  
  <!-- Task 2 - Completed -->
  <rect x="22" y="28" width="4" height="4" rx="0.5" fill="#10b981" stroke="#059669" stroke-width="0.5"/>
  <path d="M23 30 L24 31 L26 29" stroke="white" stroke-width="1" fill="none" stroke-linecap="round" stroke-linejoin="round"/>
  <line x1="28" y1="30" x2="40" y2="30" stroke="#64748b" stroke-width="1" stroke-linecap="round"/>
  
  <!-- Task 3 - Pending -->
  <rect x="22" y="36" width="4" height="4" rx="0.5" fill="white" stroke="#cbd5e1" stroke-width="1"/>
  <line x1="28" y1="38" x2="40" y2="38" stroke="#64748b" stroke-width="1" stroke-linecap="round"/>
  
  <!-- Task 4 - Pending -->
  <rect x="22" y="44" width="4" height="4" rx="0.5" fill="white" stroke="#cbd5e1" stroke-width="1"/>
  <line x1="28" y1="46" x2="40" y2="46" stroke="#64748b" stroke-width="1" stroke-linecap="round"/>
</svg>
